# xmcd
#
# Track frame offsets:
#	150
#	15552
#	27509
#	41396
#	57789
#	73956
#	90313
#	102088
#	114156
#	128622
#	150213
#	170565
#	186899
#	202815
#	219020
#	230899
#	253976
#	278521
#	289546
#	308093
#
# Disc length: 4271 seconds
#
# Revision: 0
# Processed by: cddbd v1.5.2PL0 Copyright (c) Steve Scherf et al.
# Submitted via: EasyCDDAExtractor 10.1.0.1
#
DISCID=0210ad14
DTITLE=조용필 - Big Gold 80 CD1
DYEAR=2005
DGENRE=Ballad
TTITLE0=돌아와요 부산항에
TTITLE1=미워 미워 미워
TTITLE2=허공
TTITLE3=일편단심 민들레야
TTITLE4=돌아오지 않는 강
TTITLE5=외로워마세요
TTITLE6=정
TTITLE7=대전블루스
TTITLE8=잊혀진 사랑
TTITLE9=내 마음 당신 곁으로
TTITLE10=정의 마음
TTITLE11=산장의 여인
TTITLE12=황성옛터
TTITLE13=길 잃은 철새
TTITLE14=강원도 아리랑
TTITLE15=한강
TTITLE16=한오백년
TTITLE17=간양록
TTITLE18=산유화
TTITLE19=너무 짧아요
EXTD=
EXTT0=
EXTT1=
EXTT2=
EXTT3=
EXTT4=
EXTT5=
EXTT6=
EXTT7=
EXTT8=
EXTT9=
EXTT10=
EXTT11=
EXTT12=
EXTT13=
EXTT14=
EXTT15=
EXTT16=
EXTT17=
EXTT18=
EXTT19=
PLAYORDER=
